# xmcd
#
# Track frame offsets:
#	150
#	22220
#	43482
#	63250
#	83867
#	104792
#	120490
#	140210
#	170922
#	193062
#	215172
#	235642
#	255397
#
# Disc length: 3671 seconds
#
# Revision: 0
# Processed by: cddbd v1.5.1PL0 Copyright (c) Steve Scherf et al.
# Submitted via: MusicWizard 7.0.2
#
DISCID=cd0e550d
DTITLE=Houston, Whitney - My Love Is Your Love
DYEAR=1998
DGENRE=Blues
TTITLE0=It's Not Right But It's Okay
TTITLE1=Heartbreak Hotel
TTITLE2=My Love Is Your Love
TTITLE3=When You Believe (From The Prince Of Egypt)
TTITLE4=If I Told You That
TTITLE5=In My Business
TTITLE6=I Learned From The Best
TTITLE7=Oh Yes
TTITLE8=Get It Back
TTITLE9=Until You Come Back
TTITLE10=I Bow Out
TTITLE11=You'll Never Stand Alone
TTITLE12=I Was Made To Love Him
EXTD=
EXTT0=
EXTT1=
EXTT2=
EXTT3=
EXTT4=
EXTT5=
EXTT6=
EXTT7=
EXTT8=
EXTT9=
EXTT10=
EXTT11=
EXTT12=
PLAYORDER=
